<svg width="32" height="29" viewBox="0 0 32 29" fill="none" xmlns="http://www.w3.org/2000/svg">
<path d="M0.782223 22.3289C0.270346 21.4944 -0.000402897 20.5345 4.50004e-07 19.5556V8.88889C0.00412776 7.47567 0.567356 6.12151 1.56666 5.12221C2.56596 4.12291 3.92011 3.55968 5.33333 3.55555H19.5556L0.782223 22.3289ZM31.1644 5.6C30.9042 5.44057 30.6075 5.35034 30.3026 5.33789C29.9976 5.32544 29.6946 5.39119 29.4222 5.52889L24.7822 7.84C24.691 7.41176 24.5477 6.99629 24.3556 6.60284L28.4444 2.51396L25.9305 0L4.50004e-07 25.9305L2.51396 28.4444L6.06951 24.8889H19.5556C20.7872 24.887 21.9804 24.4595 22.9329 23.6787C23.8854 22.8979 24.5387 21.8118 24.7822 20.6044L29.4222 22.9156C29.6706 23.0406 29.9442 23.1075 30.2222 23.1111C30.5549 23.1109 30.881 23.0186 31.1644 22.8444C31.4208 22.6845 31.6321 22.4617 31.7783 22.1973C31.9245 21.9329 32.0008 21.6355 32 21.3333V7.11111C32.0008 6.80895 31.9245 6.51158 31.7783 6.24715C31.6321 5.98272 31.4208 5.75997 31.1644 5.6Z" fill="#1C2674"/>
</svg>
