<svg width="29" height="40" viewBox="0 0 29 40" fill="none" xmlns="http://www.w3.org/2000/svg">
<path d="M25.4169 5.8332L1.2501 22.5C-0.4167 23.3332 -0.4167 23.3332 1.2501 25C2.0833 26.6668 2.0833 26.6668 2.9169 25.8332L27.9169 8.3332C28.7501 7.5 28.7501 7.5 27.9169 5.8332C27.0833 4.1668 27.0833 4.1668 25.4169 5.8332ZM14.5833 0C11.2501 0 7.9165 2.5 7.9165 6.6668V13.7356L20.9865 4.722C20.1365 1.7348 17.3597 0 14.5833 0ZM21.2501 8.8332L7.9169 18.1668V20C7.9169 24.1668 11.2501 26.6668 14.5837 26.6668C17.9173 26.6668 21.2501 24.1668 21.2501 20V8.8332ZM26.2501 16.6668C24.5833 16.6668 24.5833 16.6668 24.5833 18.3336V20C24.5833 25.8332 20.4165 30 14.5833 30C11.3833 30 8.6833 28.7332 7.0833 26.6668L4.2165 28.5C6.2165 30.8 9.1497 32.5 12.9165 33.3332V38.3332C12.9165 40 12.9165 40 14.5833 40C16.2501 40 16.2501 40 16.2501 38.3332V33.3332C23.7501 31.6668 27.9169 26.6668 27.9169 20V18.3332C27.9169 16.6668 27.9169 16.6668 26.2501 16.6668Z" fill="#1C2674"/>
</svg>
