<svg width="15" height="28" viewBox="0 0 15 28" fill="none" xmlns="http://www.w3.org/2000/svg">
<path d="M6.3457 0H8.65341C10.8803 0 12.6918 1.83174 12.6919 4.08355V15.7496C12.6919 18.0014 10.8803 19.8331 8.65341 19.8331H6.3457C4.11873 19.8331 2.30721 18.0014 2.30721 15.7496V4.08355C2.30721 1.83174 4.11879 0 6.3457 0Z" fill="#237BFF"/>
<path d="M13.8462 11.0826C13.8462 10.7605 14.1047 10.4992 14.4232 10.4992C14.7416 10.4992 15.0001 10.7605 15 11.0825V16.9161C15 19.8108 12.6704 22.1664 9.80768 22.1664H8.07691V26.8332H12.1154C12.4339 26.8332 12.6923 27.0946 12.6923 27.4166C12.6923 27.7386 12.4339 28 12.1154 28H2.8846C2.56614 28 2.30766 27.7386 2.30766 27.4166C2.30766 27.0946 2.56614 26.8332 2.8846 26.8332H6.92309V22.1664H5.19231C2.32961 22.1664 0 19.8108 0 16.9161V11.0825C0 10.7605 0.25848 10.4991 0.576941 10.4991C0.895403 10.4991 1.15388 10.7605 1.15388 11.0825V16.9162C1.15388 19.168 2.96546 20.9997 5.19237 20.9997H9.80774C12.0347 20.9997 13.8462 19.1679 13.8462 16.9162V11.0826Z" fill="#237BFF"/>
</svg>
